<?xml version="1.0" encoding="iso-8859-1"?>
<!-- Generator: Adobe Illustrator 19.0.0, SVG Export Plug-In . SVG Version: 6.00 Build 0)  -->
<svg version="1.1" id="Capa_1" xmlns="http://www.w3.org/2000/svg" xmlns:xlink="http://www.w3.org/1999/xlink"
	 viewBox="-5 -5 68 68" xml:space="preserve">
<path style="fill:#B29569;" d="M42,15H29c-8.8,0-16,7.2-16,16v5H0v14.161C0,54.491,3.509,58,7.839,58H52c3.3,0,6-2.7,6-6V31
	C58,22.2,50.8,15,42,15z"/>
<path style="fill:#5B4B2C;" d="M35.831,26.946l-3.284-3.316c-0.071-0.072-0.071-0.187,0.001-0.258l3.318-3.318
	c0.071-0.071,0.187-0.071,0.259,0l3.316,3.316c0.072,0.072,0.071,0.188-0.001,0.259l-3.35,3.318
	C36.018,27.018,35.902,27.018,35.831,26.946z"/>
<path style="fill:#14A085;" d="M15,9.5c0,3.025,2.475,5.5,5.5,5.5H24V4h-3.5C17.475,4,15,6.475,15,9.5z"/>
<path style="fill:#14A085;" d="M57,9.5c0,3.025-2.475,5.5-5.5,5.5H48V4h3.5C54.525,4,57,6.475,57,9.5z"/>
<rect x="29" y="4" style="fill:#14A085;" width="14" height="11"/>
<rect x="12" y="36" style="fill:#5B4B2C;" width="2" height="22"/>
<path style="fill:#EBBA16;" d="M15.201,22.959v-0.758C15.201,21.538,14.663,21,14,21H4.201C3.538,21,3,21.538,3,22.201V25h11.184
	C14.474,24.292,14.817,23.613,15.201,22.959z"/>
<path style="fill:#DC691D;" d="M2,29h11.14c0.177-1.396,0.529-2.738,1.044-4H2c-1.1,0-2,0.9-2,2S0.9,29,2,29z"/>
<path style="fill:#EBBA16;" d="M13,31c0-0.679,0.057-1.343,0.14-2H2v7h11V31z"/>
<rect x="18" y="44" style="fill:#8C743F;" width="14" height="14"/>
<path style="fill:#8C743F;" d="M51.986,58H39V44h14v12.986C53,57.546,52.546,58,51.986,58z"/>
<circle style="fill:#B29569;" cx="25" cy="48" r="1"/>
<circle style="fill:#B29569;" cx="46" cy="48" r="1"/>
<path style="fill:#BFA267;" d="M29,15V1.128C29,0.505,28.495,0,27.872,0h-2.745C24.505,0,24,0.505,24,1.128v14.689
	C25.576,15.294,27.254,15,29,15z"/>
<path style="fill:#BFA267;" d="M48,16.184V1.128C48,0.505,47.495,0,46.872,0h-2.745C43.505,0,43,0.505,43,1.128v13.923
	C44.756,15.161,46.439,15.547,48,16.184z"/>
<path style="fill:#FBD490;" d="M11,21H7v-3.396C7,17.271,7.271,17,7.604,17h2.791C10.729,17,11,17.271,11,17.604V21z"/>
<polygon style="fill:#5B4B2C;" points="53,45.355 45.991,51.665 39,45.546 39,48.204 45.3,53.717 46.057,54.296 53,48.046 "/>
<polygon style="fill:#5B4B2C;" points="32,45.767 24.996,51.693 18,45.865 18,48.468 24.3,53.717 25.037,54.278 32,48.386 "/>
<g>
	<rect x="29" y="33" style="fill:#5B4B2C;" width="14" height="2"/>
	<path style="fill:#5B4B2C;" d="M13.226,28.44c1.158,3.261,4.503,5.49,7.448,6.505C20.782,34.982,20.892,35,21,35
		c0.415,0,0.803-0.26,0.945-0.674c0.18-0.522-0.097-1.091-0.619-1.271c-3.008-1.038-6.521-3.508-6.521-7.055v-2.335
		C14.038,25.139,13.502,26.746,13.226,28.44z"/>
	<path style="fill:#5B4B2C;" d="M57.802,28.619c-0.266-1.76-0.812-3.428-1.607-4.954V26c0,3.225-2.064,5.862-5.521,7.055
		c-0.522,0.18-0.799,0.75-0.619,1.271C50.198,34.74,50.585,35,51,35c0.108,0,0.218-0.018,0.326-0.055
		C54.612,33.812,56.925,31.494,57.802,28.619z"/>
</g>
<path style="fill:#8C743F;" d="M21,36l3.801,3.801c0.11,0.11,0.288,0.11,0.397,0L29,36V15c-2.912,0-5.641,0.802-8,2.176V36z"/>
<path style="fill:#8C743F;" d="M43,15.051V36l3.801,3.801c0.11,0.11,0.288,0.11,0.397,0L51,36V17.795
	C48.691,16.213,45.949,15.236,43,15.051z"/>
<circle style="fill:#5B4B2C;" cx="25" cy="19" r="1"/>
<circle style="fill:#5B4B2C;" cx="25" cy="23" r="1"/>
<path style="fill:#C7CAC7;" d="M30,33H20v-8h10V33z M22,31h6v-4h-6V31z"/>
<path style="fill:#E7ECED;" d="M25,30c-0.552,0-1-0.448-1-1v-3c0-0.552,0.448-1,1-1s1,0.448,1,1v3C26,29.552,25.552,30,25,30z"/>
<circle style="fill:#5B4B2C;" cx="47" cy="19" r="1"/>
<circle style="fill:#5B4B2C;" cx="47" cy="23" r="1"/>
<path style="fill:#C7CAC7;" d="M52,33H42v-8h10V33z M44,31h6v-4h-6V31z"/>
<path style="fill:#E7ECED;" d="M47,30c-0.552,0-1-0.448-1-1v-3c0-0.552,0.448-1,1-1s1,0.448,1,1v3C48,29.552,47.552,30,47,30z"/>
<g>
</g>
<g>
</g>
<g>
</g>
<g>
</g>
<g>
</g>
<g>
</g>
<g>
</g>
<g>
</g>
<g>
</g>
<g>
</g>
<g>
</g>
<g>
</g>
<g>
</g>
<g>
</g>
<g>
</g>
</svg>
