<?xml version="1.0" encoding="iso-8859-1"?>
<!-- Generator: Adobe Illustrator 19.0.0, SVG Export Plug-In . SVG Version: 6.00 Build 0)  -->
<svg version="1.1" xmlns="http://www.w3.org/2000/svg" xmlns:xlink="http://www.w3.org/1999/xlink"
	 viewBox="-25 -25 562 562" xml:space="preserve">
<g>
	<path style="fill:#565656;" d="M150.069,225.103h-44.138C47.669,225.103,0,177.434,0,119.172h150.069V225.103z"/>
	<path style="fill:#565656;" d="M344.276,384H167.724c46.786-42.372,46.786-116.524,0-158.897h176.552
		C297.49,267.476,297.49,341.628,344.276,384"/>
</g>
<g>
	<path style="fill:#7F7C79;" d="M379.586,419.31H132.414c-9.71,0-17.655-7.945-17.655-17.655S122.703,384,132.414,384h247.172
		c9.71,0,17.655,7.945,17.655,17.655S389.297,419.31,379.586,419.31"/>
	<path style="fill:#7F7C79;" d="M512,92.69H150.069v52.966h350.455C507.586,129.766,512,111.228,512,92.69"/>
	<path style="fill:#7F7C79;" d="M318.676,260.414c6.179-13.241,14.124-24.717,25.6-35.31H167.724
		c11.476,10.593,20.303,22.069,25.6,35.31H318.676z"/>
</g>
<path style="fill:#3D3737;" d="M150.069,145.655v79.448h229.517c54.731,0,100.634-32.662,120.938-79.448H150.069z"/>
</svg>
