<?xml version="1.0" encoding="iso-8859-1"?>
<!-- Generator: Adobe Illustrator 19.0.0, SVG Export Plug-In . SVG Version: 6.00 Build 0)  -->
<svg version="1.1" id="Layer_1" xmlns="http://www.w3.org/2000/svg" xmlns:xlink="http://www.w3.org/1999/xlink"
	 viewBox="-25 -25 562 562" xml:space="preserve">
<polygon style="fill:#E57788;" points="256,499.629 56.545,257.865 130.868,185.336 381.132,185.336 455.455,257.865 "/>
<polygon style="fill:#ED9BA3;" points="189.518,257.861 56.545,257.861 130.868,185.333 144.757,202.507 "/>
<polygon style="fill:#FFFFFF;" points="82.789,257.865 157.112,185.336 130.868,185.336 56.545,257.865 256,499.629 
	269.122,483.724 "/>
<polygon style="fill:#ED9BA3;" points="455.453,257.863 381.132,185.336 322.487,257.863 "/>
<polygon style="fill:#E57788;" points="189.513,257.863 189.516,257.863 256,185.336 130.868,185.336 "/>
<polygon style="fill:#ED9BA3;" points="256,185.336 256,185.336 189.514,257.863 322.485,257.863 "/>
<polygon style="fill:#E57788;" points="256,185.336 322.483,257.863 322.487,257.863 381.132,185.336 "/>
<g>
	<polygon style="fill:#808080;" points="322.485,257.865 322.487,257.863 322.483,257.863 	"/>
	<polygon style="fill:#808080;" points="189.514,257.865 189.516,257.863 189.513,257.863 	"/>
</g>
<polygon style="fill:#ED9BA3;" points="322.483,257.863 189.516,257.863 189.514,257.865 256,499.629 322.485,257.865 "/>
<path d="M384.336,177.462h-53.215L408.735,43.03l-13.636-7.873l-82.16,142.306h-18.137l21.216-79.193l-15.209-4.075l-22.307,83.268
	h-14.628V0h-15.746v177.462h-14.628L211.19,94.194l-15.21,4.075l21.217,79.193h-18.136l-82.16-142.306l-13.636,7.873l77.614,134.433
	h-53.216l-81.8,79.826L256.001,512l210.135-254.711L384.336,177.462z M207.414,249.99l48.585-53.003l48.585,53.003H207.414z
	 M312.151,265.736L256,469.937l-56.151-204.201H312.151z M273.896,193.209h90.744l-42.53,52.596L273.896,193.209z M189.888,245.805
	l-42.529-52.596h90.743L189.888,245.805z M173.021,249.99H75.888l54.293-52.982L173.021,249.99z M183.518,265.736l55.129,200.488
	L73.245,265.736H183.518z M328.481,265.736h63.987V249.99h-53.491l42.841-52.983l62.953,61.434l-171.42,207.783L328.481,265.736z"/>
<rect x="408.221" y="249.991" width="15.746" height="15.746"/>
<g>
</g>
<g>
</g>
<g>
</g>
<g>
</g>
<g>
</g>
<g>
</g>
<g>
</g>
<g>
</g>
<g>
</g>
<g>
</g>
<g>
</g>
<g>
</g>
<g>
</g>
<g>
</g>
<g>
</g>
</svg>
