<?xml version="1.0" encoding="iso-8859-1"?>
<!-- Generator: Adobe Illustrator 19.0.0, SVG Export Plug-In . SVG Version: 6.00 Build 0)  -->
<svg version="1.1" xmlns="http://www.w3.org/2000/svg" xmlns:xlink="http://www.w3.org/1999/xlink" 
	 viewBox="-25 -25 551.573 551.573" xml:space="preserve">
<g transform="translate(1 1)">
	<path style="fill:#FFE100;" d="M425.613,152.173L425.613,152.173c-5.973-28.16-20.48-52.053-42.667-68.267
		C279.693,105.24,289.08,15.64,289.08,15.64c-27.307-11.093-58.027-11.093-85.333,0c0,0-11.947,107.52-119.467,68.267
		c-22.187,16.213-36.693,40.107-42.667,67.413v0.853c56.32,56.32,56.32,165.547,0,221.867v0.853
		c5.12,27.307,20.48,51.2,42.667,67.413c0,0,118.613-41.813,162.133,59.733c43.52-101.547,136.533-59.733,136.533-59.733
		c22.187-16.213,36.693-40.107,42.667-67.413v-0.853C369.293,317.72,369.293,208.493,425.613,152.173"/>
	<path style="fill:#FFA800;" d="M451.213,152.173L451.213,152.173c-5.973-28.16-20.48-52.053-42.667-68.267
		c-6.827,2.56-12.8,4.267-18.773,5.973c17.92,16.213,30.72,37.547,35.84,61.44v0.853c-56.32,56.32-56.32,165.547,0,221.867v0.853
		c-5.12,24.747-17.92,46.08-36.693,62.293c11.947,2.56,19.627,5.12,19.627,5.12c22.187-16.213,36.693-40.107,42.667-67.413v-0.853
		C394.04,317.72,394.04,208.493,451.213,152.173"/>
	<path style="fill:#FFFFFF;" d="M42.467,152.173L42.467,152.173c5.973-28.16,20.48-52.053,42.667-68.267
		c6.827,2.56,12.8,4.267,18.773,5.973c-17.92,16.213-30.72,37.547-35.84,61.44v0.853c56.32,56.32,56.32,165.547,0,221.867v0.853
		c5.12,24.747,17.92,46.08,36.693,62.293c-11.947,2.56-19.627,5.12-19.627,5.12C62.947,426.093,48.44,402.2,42.467,374.893v-0.853
		C98.787,317.72,98.787,208.493,42.467,152.173"/>
	<path style="fill:#FFE100;" d="M476.813,152.173L476.813,152.173c-4.267-21.333-13.653-40.107-28.16-55.467
		c-7.68-7.68-17.92-11.093-29.013-8.533c-1.707,0-3.413,0.853-4.267,0.853c17.92,16.213,30.72,37.547,35.84,61.44v0.853
		c-56.32,56.32-56.32,165.547,0,221.867v0.853c-5.12,24.747-17.92,46.08-36.693,62.293c1.707,0,3.413,0.853,4.267,0.853
		c11.093,2.56,22.187-0.853,29.867-9.387c13.653-15.36,23.893-34.133,27.307-53.76v-0.853
		C419.64,317.72,419.64,208.493,476.813,152.173"/>
	<path d="M246.413,510.573L246.413,510.573c-3.413,0-6.827-1.707-7.68-5.12C199.48,412.44,91.96,449.133,86.84,450.84
		c-2.56,0.853-5.12,0-7.68-1.707c-23.893-17.92-40.107-43.52-46.08-72.533v-0.853c-0.853-2.56,0-5.973,2.56-7.68
		c25.6-25.6,40.107-64,40.107-104.96s-14.507-79.36-40.107-104.96c-1.707-1.707-2.56-5.12-2.56-7.68v-0.853
		C39.053,120.6,55.267,95,79.16,77.08c2.56-1.707,5.12-2.56,7.68-0.853c29.867,11.093,54.613,11.093,73.387-0.853
		c29.867-18.773,34.987-60.587,34.987-60.587c0-3.413,2.56-5.973,5.12-6.827c29.867-11.947,62.293-11.947,91.307,0
		c3.413,0.853,5.973,3.413,5.973,6.827c0,0,5.12,42.667,34.987,60.587c18.773,11.093,42.667,11.093,72.533,0.853
		c3.413-1.707,5.973-0.853,8.533,0.853c23.893,17.92,40.107,43.52,46.08,72.533v0.853c0.853,2.56,0,5.973-2.56,7.68
		c-52.907,52.907-52.907,157.013,0,209.92c1.707,1.707,2.56,5.12,2.56,7.68v0.853c-5.973,29.013-22.187,54.613-46.08,72.533
		c-2.56,1.707-5.12,2.56-7.68,0.853C401.72,448.28,294.2,412.44,254.093,504.6C253.24,508.867,249.827,510.573,246.413,510.573z
		 M138.893,425.24c35.84,0,80.213,11.093,107.52,57.173c45.227-77.653,138.24-56.32,160.427-50.347
		c17.92-14.507,29.867-34.133,34.987-56.32c-55.467-59.733-55.467-167.253,0-226.987c-5.12-22.187-17.067-41.813-34.987-56.32
		c-33.28,11.093-61.44,10.24-83.627-3.413C293.347,70.253,283.96,34.413,281.4,20.76c-23.04-7.68-46.933-7.68-69.973,0
		c-2.56,13.653-11.947,49.493-41.813,68.267c-22.187,13.653-50.347,14.507-83.627,3.413C68.92,106.947,56.12,126.573,51,148.76
		c26.453,29.013,41.813,69.973,41.813,114.347S77.453,348.44,51,376.6c5.12,22.187,17.92,41.813,34.987,56.32
		C94.52,430.36,115,425.24,138.893,425.24z"/>
	<path d="M246.413,449.987L246.413,449.987c-2.56,0-4.267-0.853-5.973-2.56c-5.12-5.12-9.387-9.387-15.36-12.8
		c-3.413-2.56-4.267-8.533-1.707-11.947c2.56-3.413,8.533-4.267,11.947-1.707s7.68,5.973,11.093,9.387
		c3.413-3.413,7.68-5.973,11.093-9.387c3.413-2.56,9.387-1.707,11.947,1.707c2.56,3.413,1.707,9.387-1.707,11.947
		c-5.12,4.267-10.24,8.533-15.36,12.8C250.68,449.133,248.973,449.987,246.413,449.987z"/>
	<path d="M192.653,416.707c-0.853,0-1.707,0-2.56,0c-10.24-3.413-21.333-5.973-33.28-6.827c-4.267-0.853-8.533-4.267-7.68-9.387
		c0.853-4.267,4.267-7.68,9.387-7.68c12.8,0.853,25.6,3.413,36.693,7.68c4.267,1.707,6.827,5.973,5.12,11.093
		C199.48,414.147,196.067,416.707,192.653,416.707z"/>
	<path d="M93.667,413.293c-2.56,0-5.12-0.853-5.973-2.56c-6.827-7.68-11.947-15.36-15.36-24.747
		c-0.853-2.56-0.853-5.973,0.853-8.533c4.267-5.12,7.68-11.093,11.093-17.067c2.56-4.267,7.68-5.12,11.947-3.413
		c4.267,2.56,5.12,7.68,3.413,11.947c-3.413,5.12-6.827,10.24-10.24,14.507c1.707,4.267,4.267,7.68,7.68,11.947
		c5.12-0.853,11.093-1.707,17.067-2.56c4.267-0.853,8.533,2.56,9.387,7.68c0.853,4.267-2.56,8.533-7.68,9.387
		c-6.827,0.853-13.653,1.707-20.48,3.413C94.52,413.293,93.667,413.293,93.667,413.293z"/>
	<path d="M109.027,331.373c-0.853,0-1.707,0-2.56,0c-4.267-1.707-6.827-5.973-5.973-10.24c3.413-11.093,5.973-23.04,6.827-35.84
		c0.853-4.267,4.267-8.533,9.387-7.68c4.267,0.853,7.68,4.267,7.68,9.387c-1.707,12.8-4.267,26.453-7.68,38.4
		C116.707,328.813,113.293,331.373,109.027,331.373z M116.707,248.6c-4.267,0-7.68-3.413-8.533-7.68
		c-1.707-11.947-3.413-23.893-6.827-34.987c-1.707-4.267,0.853-9.387,5.973-10.24c4.267-1.707,9.387,0.853,10.24,5.973
		c3.413,12.8,5.973,25.6,7.68,38.4c0.853,4.267-2.56,8.533-7.68,9.387C117.56,248.6,116.707,248.6,116.707,248.6z"/>
	<path d="M91.107,170.093c-2.56,0-5.973-1.707-7.68-4.267c-3.413-5.973-6.827-11.947-11.093-17.067
		c-1.707-2.56-2.56-5.973-0.853-8.533c3.413-8.533,8.533-17.067,14.507-23.893c1.707-2.56,5.12-3.413,8.533-2.56
		c6.827,1.707,13.653,2.56,19.627,3.413c5.12,0.853,8.533,5.12,8.533,9.387c-0.853,4.267-5.12,7.68-9.387,7.68
		c-5.12-0.853-11.093-1.707-17.067-2.56c-2.56,3.413-5.12,6.827-6.827,11.093c3.413,4.267,6.827,9.387,9.387,14.507
		c2.56,4.267,0.853,9.387-3.413,11.947C94.52,170.093,92.813,170.093,91.107,170.093z"/>
	<path d="M161.933,129.987c-3.413,0-6.827-2.56-8.533-5.973c-1.707-4.267,0.853-9.387,5.12-11.093
		c11.947-3.413,22.187-10.24,31.573-17.92c3.413-3.413,8.533-2.56,11.947,0.853c3.413,3.413,2.56,8.533-0.853,11.947
		c-11.093,10.24-23.893,17.067-37.547,22.187C163.64,129.987,162.787,129.987,161.933,129.987z"/>
	<path d="M225.08,71.107c-0.853,0-2.56,0-3.413-0.853c-4.267-1.707-5.973-6.827-4.267-11.093c2.56-5.973,5.12-11.947,6.827-18.773
		c0.853-3.413,3.413-5.12,6.827-5.973c10.24-1.707,20.48-1.707,29.867,0c3.413,0.853,5.973,2.56,6.827,5.973
		c1.707,6.827,4.267,12.8,6.827,18.773c1.707,4.267,0,9.387-4.267,11.093c-4.267,1.707-9.387,0-11.093-4.267
		c-2.56-5.12-4.267-10.24-6.827-16.213c-5.12-0.853-9.387-0.853-14.507,0c-1.707,5.12-4.267,11.093-6.827,16.213
		C231.053,69.4,228.493,71.107,225.08,71.107z"/>
	<path d="M330.893,129.987c-0.853,0-1.707,0-2.56,0c-13.653-4.267-26.453-11.947-37.547-22.187
		c-3.413-3.413-3.413-8.533-0.853-11.947c3.413-3.413,8.533-3.413,11.947-0.853c9.387,8.533,19.627,14.507,31.573,17.92
		c4.267,1.707,6.827,5.973,5.12,11.093C337.72,127.427,334.307,129.987,330.893,129.987z"/>
	<path d="M401.72,170.093c-1.707,0-2.56,0-4.267-0.853c-4.267-2.56-5.12-7.68-3.413-11.947c2.56-5.12,5.973-10.24,9.387-14.507
		c-1.707-4.267-4.267-7.68-6.827-11.093c-5.973,0.853-11.093,2.56-17.067,2.56c-5.12,0.853-8.533-2.56-9.387-7.68
		c-0.853-4.267,2.56-8.533,7.68-9.387c6.827-0.853,12.8-1.707,19.627-3.413c3.413-0.853,5.973,0,8.533,2.56
		c5.973,6.827,11.093,15.36,14.507,23.893c0.853,2.56,0.853,5.973-0.853,8.533c-4.267,5.12-7.68,11.093-11.093,17.067
		C406.84,168.387,404.28,170.093,401.72,170.093z"/>
	<path d="M383.8,331.373c-3.413,0-6.827-2.56-8.533-5.973c-3.413-12.8-5.973-25.6-7.68-38.4c-0.853-4.267,2.56-8.533,7.68-9.387
		s8.533,2.56,9.387,7.68c1.707,11.947,3.413,23.893,6.827,35.84c1.707,4.267-0.853,9.387-5.973,10.24
		C385.507,331.373,384.653,331.373,383.8,331.373z M376.12,248.6h-0.853c-4.267-0.853-7.68-5.12-7.68-9.387
		c1.707-12.8,4.267-26.453,7.68-38.4c1.707-4.267,5.973-6.827,10.24-5.973c4.267,1.707,6.827,5.973,5.973,10.24
		c-3.413,11.093-5.973,23.04-6.827,35.84C383.8,246.04,380.387,248.6,376.12,248.6z"/>
	<path d="M399.16,413.293c-0.853,0-0.853,0-1.707,0c-6.827-1.707-13.653-2.56-20.48-3.413c-4.267-0.853-7.68-5.12-7.68-9.387
		c0.853-4.267,4.267-7.68,9.387-7.68c5.973,0.853,11.093,1.707,17.067,2.56c2.56-3.413,5.12-7.68,7.68-11.947
		c-3.413-4.267-6.827-9.387-9.387-14.507c-2.56-4.267-0.853-9.387,3.413-11.947c4.267-2.56,9.387-0.853,11.947,3.413
		c3.413,5.973,6.827,11.947,11.093,17.067c1.707,2.56,2.56,5.973,0.853,8.533c-3.413,9.387-8.533,17.067-15.36,24.747
		C404.28,412.44,401.72,413.293,399.16,413.293z"/>
	<path d="M301.027,416.707c-3.413,0-6.827-2.56-8.533-5.973c-1.707-4.267,0.853-9.387,5.12-11.093
		c11.947-3.413,23.893-5.973,36.693-7.68c5.12,0,8.533,2.56,9.387,7.68c0.853,4.267-2.56,8.533-7.68,9.387
		c-11.947,0.853-23.04,3.413-33.28,6.827C302.733,415.853,301.88,416.707,301.027,416.707z"/>
</g>
<g>
</g>
<g>
</g>
<g>
</g>
<g>
</g>
<g>
</g>
<g>
</g>
<g>
</g>
<g>
</g>
<g>
</g>
<g>
</g>
<g>
</g>
<g>
</g>
<g>
</g>
<g>
</g>
<g>
</g>
</svg>
