<?xml version="1.0" encoding="iso-8859-1"?>
<!-- Generator: Adobe Illustrator 19.0.0, SVG Export Plug-In . SVG Version: 6.00 Build 0)  -->
<svg version="1.1" xmlns="http://www.w3.org/2000/svg" xmlns:xlink="http://www.w3.org/1999/xlink" 
	 viewBox="-25 -25 552 552" xml:space="preserve">
<path style="fill:#CCE8FF;" d="M417.28,247.207c-4.896,5.455-12.799,7.012-19.367,3.896c-22.15-10.24-43.075-16.473-69.788-16.473
	c-32.946,0-51.534,8.793-72.125,17.03c-18.475,7.569-38.4,14.692-72.014,14.692c-24.265,0-108.188-11.464-89.043-42.63
	c19.701-31.944,48.973-57.656,83.144-73.127V66.783c-18.475,0-33.391-14.915-33.391-33.391S159.612,0,178.087,0h155.826
	c18.475,0,33.391,14.915,33.391,33.391s-14.916,33.391-33.391,33.391v83.812c35.617,16.028,65.67,43.075,85.369,76.911
	C423.068,233.85,422.176,241.864,417.28,247.207z"/>
<path style="fill:#B0DBFF;" d="M417.28,247.207c-4.896,5.455-12.799,7.012-19.367,3.896c-22.15-10.24-43.075-16.473-69.788-16.473
	c-32.946,0-51.534,8.793-72.125,17.03V0h77.913c18.475,0,33.391,14.915,33.391,33.391s-14.916,33.391-33.391,33.391v83.812
	c35.617,16.028,65.67,43.075,85.369,76.911C423.068,233.85,422.176,241.864,417.28,247.207z"/>
<path style="fill:#FF80AC;" d="M419.282,227.506c-3.004-5.231-6.788-6.456-12.13-8.904c-24.488-11.353-51.759-17.363-79.027-17.363
	c-25.043,0-49.307,4.787-72.125,14.358c-2.337,0.89-4.674,1.892-7.012,3.005c-40.07,18.477-86.372,20.035-132.787-1.224
	c-7.679-3.562-16.696-0.779-21.147,6.233c-18.476,29.607-28.271,63.889-28.271,99.172C66.783,427.075,151.708,512,256,512
	s189.217-84.925,189.217-189.217C445.217,289.169,436.313,256.223,419.282,227.506z"/>
<path style="fill:#F26D99;" d="M445.217,322.783C445.217,427.075,360.292,512,256,512V215.597
	c22.817-9.572,47.082-14.358,72.125-14.358c27.27,0,54.539,6.01,79.027,17.365c5.343,2.449,9.126,3.673,12.13,8.904
	C436.313,256.223,445.217,289.169,445.217,322.783z"/>
<path style="fill:#FFEFD9;" d="M328.225,345.277c0,29.084-29.395,46.659-72.225,83.378c-42.83-36.719-72.225-54.294-72.225-83.378
	c0-21.025,14.737-38.767,36.118-38.767c27.437,0,36.107,30.954,36.107,30.954c4.07-16.282,18.862-30.954,36.107-30.954
	c7.012,0,13.312,1.903,18.621,5.22c1.77,1.102,3.428,2.371,4.975,3.762C323.573,322.682,328.225,333.457,328.225,345.277z"/>
<path style="fill:#FFD9B3;" d="M328.225,345.277c0-11.821-4.653-22.595-12.522-29.785c-1.547-1.391-3.206-2.66-4.975-3.762
	c-5.309-3.317-11.609-5.22-18.621-5.22c-17.244,0-32.037,14.671-36.107,30.954v91.192
	C298.83,391.936,328.225,374.361,328.225,345.277z"/>
<g>
</g>
<g>
</g>
<g>
</g>
<g>
</g>
<g>
</g>
<g>
</g>
<g>
</g>
<g>
</g>
<g>
</g>
<g>
</g>
<g>
</g>
<g>
</g>
<g>
</g>
<g>
</g>
<g>
</g>
</svg>
