<?xml version="1.0" encoding="iso-8859-1"?>
<!-- Generator: Adobe Illustrator 19.0.0, SVG Export Plug-In . SVG Version: 6.00 Build 0)  -->
<svg version="1.1" xmlns="http://www.w3.org/2000/svg" xmlns:xlink="http://www.w3.org/1999/xlink" 
	 viewBox="-25 -25 552 552" xml:space="preserve">
<path style="fill:#765B43;" d="M261.924,314.435c-9.217,0-16.696-7.473-16.696-16.696v-66.783c0-9.223,7.479-16.696,16.696-16.696
	c9.217,0,16.696,7.473,16.696,16.696v66.783C278.619,306.962,271.142,314.435,261.924,314.435z"/>
<path style="fill:#5F4A37;" d="M261.924,214.261c-0.122,0-0.236,0.033-0.358,0.036v100.102c0.122,0.002,0.236,0.036,0.358,0.036
	c9.217,0,16.696-7.473,16.696-16.696v-66.783C278.619,221.734,271.142,214.261,261.924,214.261z"/>
<path style="fill:#8C6D50;" d="M361.739,447.37H150.261C67.403,447.37,0,379.962,0,297.109c0-9.223,7.479-16.696,16.696-16.696
	h478.609c9.217,0,16.696,7.473,16.696,16.696C512,379.962,444.597,447.37,361.739,447.37z"/>
<path style="fill:#765B43;" d="M495.304,280.413H261.565V447.37h100.174C444.597,447.37,512,379.962,512,297.109
	C512,287.885,504.521,280.413,495.304,280.413z"/>
<path style="fill:#6E6057;" d="M61.576,498.087c-4.272,0-8.544-1.631-11.804-4.892c-6.521-6.516-6.521-17.092,0-23.609
	l116.87-116.87c6.521-6.521,17.087-6.521,23.609,0c6.521,6.516,6.521,17.092,0,23.609l-116.87,116.87
	C70.12,496.456,65.848,498.087,61.576,498.087z"/>
<path style="fill:#F5DD9A;" d="M402.809,34.838c-8.792-13.134-24.041-20.925-40.848-20.925H111.638
	c-6.457,0-12.356,3.784-15.139,9.572c-2.671,5.899-1.78,12.8,2.339,17.809c43.186,51.868,43.186,127.11,0,178.977
	c-4.118,5.009-5.01,11.91-2.339,17.809c2.783,5.788,8.682,9.572,15.139,9.572h250.323c16.807,0,32.056-7.791,40.848-20.925
	C441.543,168.403,441.543,93.162,402.809,34.838z"/>
<path style="fill:#E8C870;" d="M402.809,226.727c-8.792,13.134-24.041,20.925-40.848,20.925H261.565V13.913h100.397
	c16.807,0,32.056,7.791,40.848,20.925C441.543,93.162,441.543,168.403,402.809,226.727z"/>
<path style="fill:#6E6057;" d="M390.568,376.32l-116.87,116.87c-3.228,3.228-7.46,4.897-11.799,4.897
	c-4.23,0-8.57-1.67-11.799-4.897c-6.456-6.456-6.456-17.141,0-23.597l116.87-116.87c6.568-6.567,17.141-6.567,23.598,0
	C397.133,359.179,397.133,369.864,390.568,376.32z"/>
<path style="fill:#615349;" d="M390.568,376.32l-116.87,116.87c-3.228,3.228-7.46,4.897-11.799,4.897
	c-0.111,0-0.223-0.111-0.334-0.111v-39.847L366.97,352.723c6.568-6.567,17.141-6.567,23.598,0
	C397.133,359.179,397.133,369.864,390.568,376.32z"/>
<path style="fill:#6E6057;" d="M161.75,498.087c-4.272,0-8.544-1.631-11.804-4.892c-6.521-6.516-6.521-17.092,0-23.609
	l116.87-116.87c6.521-6.521,17.087-6.521,23.609,0c6.521,6.516,6.521,17.092,0,23.609l-116.87,116.87
	C170.293,496.456,166.022,498.087,161.75,498.087z"/>
<path style="fill:#615349;" d="M266.815,352.718l-5.25,5.249v47.218l28.859-28.859c6.521-6.516,6.521-17.092,0-23.609
	C283.902,346.195,273.337,346.195,266.815,352.718z"/>
</svg>
