<?xml version="1.0" encoding="iso-8859-1"?>
<!-- Generator: Adobe Illustrator 19.0.0, SVG Export Plug-In . SVG Version: 6.00 Build 0)  -->
<svg version="1.1" xmlns="http://www.w3.org/2000/svg" xmlns:xlink="http://www.w3.org/1999/xlink" 
	 viewBox="-25 -25 562 562" xml:space="preserve">
<path style="fill:#A6673A;" d="M255.505,211.478c-9.217,0-16.25-7.473-16.25-16.696L239.032,128c0-9.223,7.256-16.696,16.473-16.696
	s16.807,7.473,16.807,16.696v66.783C272.312,204.005,264.722,211.478,255.505,211.478z"/>
<path style="fill:#99522E;" d="M255.831,111.337v100.108c9.062-0.178,16.481-7.552,16.481-16.663v-66.783
	C272.312,118.889,264.894,111.515,255.831,111.337z"/>
<path style="fill:#FFC033;" d="M339.085,261.565v100.174c0,9.238-7.235,16.696-16.473,16.696H189.047
	c-9.238,0-16.696-7.457-16.696-16.696V261.565c0-40.403,28.717-74.017,66.783-81.809c5.343-1.113,11.019-1.67,16.696-1.67
	c5.599,0,11.197,0.545,16.473,1.625c0.078,0.011,0.145,0.033,0.223,0.045c16.362,3.339,30.943,11.464,42.296,22.817
	C329.958,217.711,339.085,238.525,339.085,261.565z"/>
<path style="fill:#F9A926;" d="M339.085,261.565v100.174c0,9.238-7.235,16.696-16.473,16.696h-66.783V178.087
	c5.599,0,11.197,0.545,16.473,1.625c0.078,0.011,0.145,0.033,0.223,0.045c16.362,3.339,30.943,11.464,42.296,22.817
	C329.958,217.711,339.085,238.525,339.085,261.565z"/>
<path style="fill:#F08317;" d="M272.302,179.712v131.94h-33.169V179.757c5.343-1.113,11.019-1.67,16.696-1.67
	C261.428,178.087,267.026,178.632,272.302,179.712z"/>
<path style="fill:#E46D17;" d="M255.718,178.089v133.563h16.584v-131.94c-5.276-1.08-10.874-1.625-16.473-1.625
	C255.791,178.087,255.755,178.089,255.718,178.089z"/>
<path style="fill:#736056;" d="M489.57,445.217H22.092c-9.22,0-16.696-7.475-16.696-16.696l0,0c0-9.22,7.475-16.696,16.696-16.696
	H489.57c9.22,0,16.696,7.475,16.696,16.696l0,0C506.266,437.742,498.791,445.217,489.57,445.217z"/>
<path style="fill:#665247;" d="M489.57,411.826H255.831v33.391H489.57c9.22,0,16.696-7.475,16.696-16.696
	C506.266,419.301,498.79,411.826,489.57,411.826z"/>
<path style="fill:#D9472B;" d="M472.549,489.739V128c0-9.223-7.479-16.696-16.696-16.696H389.07
	c-9.217,0-16.473,7.473-16.473,16.696v361.739H472.549z"/>
<path style="fill:#E6563A;" d="M138.747,489.739V128c0-9.223-7.367-16.696-16.584-16.696H55.38c-9.217,0-16.696,7.473-16.696,16.696
	v361.739H138.747z"/>
<path style="fill:#736056;" d="M155.331,512H21.766c-9.217,0-16.696-7.473-16.696-16.696s7.479-16.696,16.696-16.696h133.565
	c9.217,0,16.696,7.473,16.696,16.696S164.548,512,155.331,512z"/>
<path style="fill:#665247;" d="M489.244,512H355.679c-9.217,0-16.696-7.473-16.696-16.696s7.479-16.696,16.696-16.696h133.565
	c9.217,0,16.696,7.473,16.696,16.696S498.461,512,489.244,512z"/>
<path style="fill:#736056;" d="M490.233,144.696H21.766c-6.391,0-12.228-3.652-15.022-9.407c-2.794-5.75-2.055-12.592,1.902-17.614
	C29.375,91.347,39.45,58.32,39.45,16.696C39.45,7.473,46.929,0,56.146,0h399.706c9.217,0,16.696,7.473,16.696,16.696
	c0,41.624,10.076,74.652,30.805,100.979c3.957,5.022,4.696,11.864,1.902,17.614C502.462,141.044,496.625,144.696,490.233,144.696z"
	/>
<path style="fill:#665247;" d="M472.549,16.696C472.549,7.473,465.07,0,455.853,0H255.831v144.696h234.402
	c6.391,0,12.228-3.652,15.022-9.407c2.794-5.75,2.055-12.592-1.902-17.614C482.624,91.347,472.549,58.32,472.549,16.696z"/>
<rect x="172.354" y="278.261" style="fill:#F08317;" width="166.734" height="33.391"/>
<rect x="255.832" y="278.261" style="fill:#E46D17;" width="83.256" height="33.391"/>
<g>
</g>
<g>
</g>
<g>
</g>
<g>
</g>
<g>
</g>
<g>
</g>
<g>
</g>
<g>
</g>
<g>
</g>
<g>
</g>
<g>
</g>
<g>
</g>
<g>
</g>
<g>
</g>
<g>
</g>
</svg>
